<?xml version="1.0" encoding="UTF-8"?>
<svg version="1.1" xmlns="http://www.w3.org/2000/svg" width="547" height="227">
<path d="M0 0 C180.51 0 361.02 0 547 0 C547 74.91 547 149.82 547 227 C366.49 227 185.98 227 0 227 C0 152.09 0 77.18 0 0 Z " fill="#FEFDFD" transform="translate(0,0)"/>
<path d="M0 0 C29.4525 0.99 29.4525 0.99 59.5 2 C59.5 74.93 59.5 147.86 59.5 223 C-33.19520643 223 -33.19520643 223 -48.12207031 208.47558594 C-49.10998885 207.48105898 -50.09539794 206.48403216 -51.078125 205.484375 C-51.61926941 204.93944397 -52.16041382 204.39451294 -52.71795654 203.83306885 C-54.39788043 202.14124137 -56.07439821 200.4461074 -57.75 198.75 C-66.91769037 189.4384251 -66.91769037 189.4384251 -76.60058594 180.67236328 C-80.40882654 177.31934938 -83.93383279 173.66884067 -87.5 170.0625 C-88.27472656 169.28326172 -89.04945313 168.50402344 -89.84765625 167.70117188 C-91.73410757 165.8030758 -93.61816245 163.90266851 -95.5 162 C-99.67469628 163.6358657 -102.45513629 166.69524012 -105.5378418 169.82666016 C-106.13178741 170.42192001 -106.72573303 171.01717987 -107.337677 171.63047791 C-109.29616453 173.5954473 -111.24758315 175.56728961 -113.19921875 177.5390625 C-114.55823217 178.90434604 -115.91776184 180.26911589 -117.27778625 181.63339233 C-120.85400637 185.22291001 -124.4246138 188.817955 -127.99365234 192.41461182 C-133.71611426 198.18021826 -139.44535111 203.93907393 -145.17777443 209.69477463 C-147.18386176 211.71112692 -149.18652652 213.73083406 -151.18888855 215.75088501 C-152.40925933 216.97807932 -153.62973777 218.20516659 -154.8503418 219.43212891 C-155.41085739 219.99938187 -155.97137299 220.56663483 -156.5488739 221.15107727 C-157.84705884 222.45312892 -159.17075153 223.72967676 -160.5 225 C-160.83 225 -161.16 225 -161.5 225 C-161.75714179 202.46896301 -161.95102509 179.93816848 -162.06993389 157.40596104 C-162.1266172 146.94339972 -162.20387204 136.48175092 -162.32983398 126.01977539 C-162.43959115 116.89935421 -162.51046744 107.77959392 -162.53497344 98.65853065 C-162.54929593 93.83007502 -162.58286643 89.00350975 -162.66303062 84.17566109 C-162.7379438 79.62701351 -162.76068147 75.08102618 -162.74418449 70.5318203 C-162.74720014 68.86645649 -162.76894493 67.20099982 -162.81126022 65.53617096 C-163.1143495 52.99169726 -163.1143495 52.99169726 -159.12880898 48.07455254 C-156.35415483 45.77355028 -153.57701272 43.86954945 -150.5 42 C-148.9568479 40.86452716 -147.42208908 39.71739649 -145.90234375 38.55078125 C-144.41576012 37.4690174 -142.92744524 36.3896291 -141.4375 35.3125 C-134.95552154 30.58427838 -128.56344399 25.76345786 -122.25 20.8125 C-116.5485746 16.34983487 -110.81947603 11.93302485 -105 7.625 C-104.37061523 7.15425049 -103.74123047 6.68350098 -103.09277344 6.19848633 C-98.73733606 3 -98.73733606 3 -96.5 3 C-96.17 13.23 -95.84 23.46 -95.5 34 C-93.92669922 31.71320312 -92.35339844 29.42640625 -90.73242188 27.0703125 C-66.36505417 -5.39135369 -37.76899484 -1.79493068 0 0 Z " fill="#5908C7" transform="translate(486.5,-2)"/>
<path d="M0 0 C32.01 0 64.02 0 97 0 C97 33 97 66 97 100 C64.99 100 32.98 100 0 100 C0 67 0 34 0 0 Z " fill="#FFFFFF" transform="translate(390,58)"/>
<path d="M0 0 C7.6449021 -0.44979058 15.28190409 -0.77365785 22.93701172 -0.98876953 C25.53147644 -1.07852225 28.12505072 -1.20079436 30.71630859 -1.35791016 C42.85326621 -2.0746043 54.32233504 -2.67251956 64.37432861 5.06390381 C71.59990429 11.80793533 74.85242326 18.31081707 75.66140747 28.16897583 C75.82597829 34.34874281 75.50609633 40.45874954 75.125 46.625 C75.03451095 49.19242418 74.95241674 51.7601586 74.87890625 54.328125 C74.69780152 60.56617694 74.34640857 66.76036905 74 73 C59.48 73 44.96 73 30 73 C30 66.73 30 60.46 30 54 C38.25 54 46.5 54 55 54 C54.9718532 49.95965431 54.9286678 45.92374684 54.84741211 41.88452148 C54.82429022 40.51224569 54.80984997 39.13979391 54.80444336 37.76733398 C54.79511335 35.78865529 54.75142981 33.81023376 54.70703125 31.83203125 C54.6913208 30.64327393 54.67561035 29.4545166 54.65942383 28.22973633 C53.79790464 24.01017418 52.44409985 22.54145966 49 20 C45.82952766 19.22876561 45.82952766 19.22876561 42.38671875 19.29296875 C41.26225342 19.26485107 40.13778809 19.2367334 38.97924805 19.20776367 C37.56297119 19.20107666 36.14669434 19.19438965 34.6875 19.1875 C30.170625 19.125625 25.65375 19.06375 21 19 C21 36.82 21 54.64 21 73 C14.73 73 8.46 73 2 73 C1.769335 67.03602825 1.5707789 61.08769663 1.45068359 55.12280273 C1.40061313 53.09817922 1.33253012 51.07391338 1.24560547 49.05053711 C0.54024212 32.20065142 0.54024212 32.20065142 4.20019531 26.68310547 C6.69616997 24.44175795 9.11578634 22.69622782 12 21 C12.66 20.34 13.32 19.68 14 19 C7.07 18.505 7.07 18.505 0 18 C0 12.06 0 6.12 0 0 Z " fill="#F6570F" transform="translate(235,48)"/>
<path d="M0 0 C6.27 0 12.54 0 19 0 C19 5.94 19 11.88 19 18 C36.82 18 54.64 18 73 18 C73 43.28174589 73 43.28174589 68.73046875 52.40234375 C68.29366287 53.42002335 67.85685699 54.43770294 67.40681458 55.48622131 C66.03709767 58.65432395 64.61447668 61.79484351 63.1875 64.9375 C62.24566922 67.08888763 61.30749708 69.24188075 60.37304688 71.39648438 C58.32190903 76.10767415 56.23755909 80.80228335 54.12004089 85.48399353 C52.71430361 88.64177475 51.36159843 91.822937 50 95 C42.74 95 35.48 95 28 95 C31.375 84.875 31.375 84.875 33.17651367 80.57202148 C33.58220581 79.59857788 33.98789795 78.62513428 34.40588379 77.62219238 C34.82237183 76.63182983 35.23885986 75.64146729 35.66796875 74.62109375 C36.05811157 73.68656372 36.44825439 72.75203369 36.85021973 71.78918457 C38.29245753 68.33714935 39.74029967 64.88745772 41.1875 61.4375 C44.425625 53.703125 47.66375 45.96875 51 38 C34.17 38 17.34 38 0 38 C0 25.46 0 12.92 0 0 Z " fill="#5907C7" transform="translate(31,111)"/>
<path d="M0 0 C45.70683222 -3.24063712 45.70683222 -3.24063712 56.75146484 4.55908203 C65.56346108 13.13882106 67.04272064 24.70059305 67.25 36.5 C67.04272064 48.29940695 65.56346108 59.86117894 56.75146484 68.44091797 C41.9625856 78.88482394 17.01484395 74.20636089 0 73 C0 66.73 0 60.46 0 54 C4.22683594 53.99613281 4.22683594 53.99613281 8.5390625 53.9921875 C11.27959819 53.96934776 14.01983649 53.93633342 16.76025391 53.90234375 C18.6592707 53.8842178 20.55841905 53.87660907 22.45751953 53.87988281 C25.19406226 53.8827498 27.92789604 53.84733581 30.6640625 53.8046875 C31.93003769 53.8183284 31.93003769 53.8183284 33.22158813 53.83224487 C37.58972588 53.72545291 40.26235561 53.28582601 43.53149414 50.25805664 C47.19250289 45.9749292 46.92291508 41.99568352 46.8125 36.5625 C46.84408203 35.64662109 46.87566406 34.73074219 46.90820312 33.78710938 C46.90369141 32.88927734 46.89917969 31.99144531 46.89453125 31.06640625 C46.89300049 30.26146729 46.89146973 29.45652832 46.88989258 28.62719727 C45.43281926 24.32553307 42.71754478 21.55306156 39 19 C35.90045406 18.06448812 33.00657385 18.04144461 29.78515625 18.09765625 C28.92941513 18.08536484 28.07367401 18.07307343 27.19200134 18.06040955 C24.48128027 18.02882848 21.77330272 18.04491147 19.0625 18.0625 C17.21546966 18.04938212 15.36845872 18.03313782 13.52148438 18.01367188 C9.0126756 17.96710582 4.51068868 17.98511324 0 18 C0 12.06 0 6.12 0 0 Z " fill="#F6540C" transform="translate(99,48)"/>
<path d="M0 0 C25.41 0 50.82 0 77 0 C77 6.6 77 13.2 77 20 C73.04 20 69.08 20 65 20 C65 39.14 65 58.28 65 78 C58.4 78 51.8 78 45 78 C44.6993984 71.80298232 44.44169107 65.63164414 44.28588867 59.43310547 C44.22093324 57.3316442 44.1325246 55.23076089 44.01928711 53.13134766 C43.85955217 50.09132437 43.78748689 47.05911055 43.73046875 44.015625 C43.66337204 43.09324036 43.59627533 42.17085571 43.52714539 41.22052002 C43.52416992 38.49316406 43.52416992 38.49316406 45 33 C49.29 29.04 53.58 25.08 58 21 C38.86 20.67 19.72 20.34 0 20 C0 13.4 0 6.8 0 0 Z " fill="#5A09C7" transform="translate(110,129)"/>
<path d="M0 0 C7.6449021 -0.44979058 15.28190409 -0.77365785 22.93701172 -0.98876953 C25.53147644 -1.07852225 28.12505072 -1.20079436 30.71630859 -1.35791016 C42.79729153 -2.07129896 54.31477761 -2.65649195 64.37432861 4.96185303 C71.8746479 11.88986421 74.88145153 18.63493669 75.66140747 28.78323364 C75.80932059 34.73754424 75.59449057 40.64527562 75.23596191 46.58612061 C75.04885678 50.02410017 74.96901334 53.46460474 74.87890625 56.90625 C74.6823147 63.61138402 74.37290046 70.30245278 74 77 C67.73 77 61.46 77 55 77 C55.00112793 75.51677246 55.00225586 74.03354492 55.00341797 72.50537109 C54.99974171 66.99228845 54.95690337 61.48007976 54.90234375 55.96728516 C54.88419679 53.58322788 54.87661286 51.1990655 54.87988281 48.81494141 C54.88274344 45.38361498 54.84738824 41.95446258 54.8046875 38.5234375 C54.81378143 37.46071625 54.82287537 36.397995 54.83224487 35.30307007 C54.74242487 30.7101385 54.64435012 26.97967866 51.64257812 23.33007812 C47.29985446 19.7886335 42.27786564 20.1474427 36.9140625 20.1953125 C35.85714203 20.18160614 34.80022156 20.16789978 33.71127319 20.15377808 C30.348748 20.11650683 26.98770229 20.12019133 23.625 20.125 C21.33982069 20.10687136 19.05466093 20.08606816 16.76953125 20.0625 C11.17943988 20.01067518 5.59031841 19.99556776 0 20 C0 13.4 0 6.8 0 0 Z " fill="#5806C7" transform="translate(235,129)"/>
<path d="M0 0 C3.90394629 -0.35601069 7.7749369 -0.6100877 11.6875 -0.8125 C13.31268555 -0.97588867 13.31268555 -0.97588867 14.97070312 -1.14257812 C21.78110347 -1.40529387 27.05877799 0.14503278 32.28125 4.46875 C38.57752717 10.61914019 39.09696482 17.93434511 39.25716591 26.3402195 C39.2911347 32.2411527 39.12114505 38.12830631 38.89263916 44.02416992 C38.734663 48.5350931 38.67630278 53.04832964 38.60074615 57.56124115 C38.47569167 64.37886665 38.22644092 71.18161232 38 78 C23.81 78 9.62 78 -5 78 C-5 71.4 -5 64.8 -5 58 C2.59 58 10.18 58 18 58 C17.505 39.685 17.505 39.685 17 21 C11.39 20.67 5.78 20.34 0 20 C0 13.4 0 6.8 0 0 Z " fill="#5B0AC8" transform="translate(192,129)"/>
<path d="M0 0 C6.23898729 -0.42579711 12.46926355 -0.73104813 18.71948242 -0.93383789 C20.83589076 -1.01845569 22.95133204 -1.13382527 25.06420898 -1.2824707 C35.66165116 -2.00839172 44.92509769 -1.99209857 53.67446899 4.67910767 C60.86078813 11.255285 63.84993018 17.51796424 64.57667542 27.2268219 C64.71951487 33.52917205 64.42151418 39.77198182 64.0625 46.0625 C63.9770571 48.68269498 63.89952035 51.30316028 63.83007812 53.92382812 C63.64439716 60.28933144 63.35216311 66.64162342 63 73 C57.06 73 51.12 73 45 73 C45.00112793 71.5773584 45.00225586 70.1547168 45.00341797 68.68896484 C44.99974084 63.39949884 44.95689467 58.11094322 44.90234375 52.82177734 C44.88420028 50.53472768 44.87661223 48.24756851 44.87988281 45.96044922 C44.88274449 42.66808622 44.84737946 39.37798665 44.8046875 36.0859375 C44.81378143 35.06696381 44.82287537 34.04799011 44.83224487 32.99813843 C44.73871135 28.40671601 44.57986712 24.93612239 41.50585938 21.35742188 C37.67589203 18.20170011 33.90312364 18.14074725 29.1015625 18.1953125 C28.26660248 18.18160614 27.43164246 18.16789978 26.57138062 18.15377808 C23.92203352 18.11658653 21.27457031 18.12018523 18.625 18.125 C16.82158543 18.10686547 15.0181956 18.08606039 13.21484375 18.0625 C8.80880424 18.00575248 4.40764789 18.00425038 0 18 C0 12.06 0 6.12 0 0 Z " fill="#F6540B" transform="translate(168,48)"/>
<path d="M0 0 C6.6 0 13.2 0 20 0 C20 30.03 20 60.06 20 91 C13.4 91 6.8 91 0 91 C0 60.97 0 30.94 0 0 Z " fill="#5B0BC8" transform="translate(4,134)"/>
<path d="M0 0 C13.53 0 27.06 0 41 0 C41 5.94 41 11.88 41 18 C36.71 18 32.42 18 28 18 C28 36.15 28 54.3 28 73 C21.73 73 15.46 73 9 73 C8.81581557 67.00121534 8.6567908 61.0123047 8.56054688 55.01293945 C8.52042235 52.97484027 8.46590655 50.93696986 8.39648438 48.8996582 C8.29893704 45.96247912 8.25396629 43.02835219 8.21875 40.08984375 C8.17745972 39.18540024 8.13616943 38.28095673 8.09362793 37.34910583 C8.09088812 33.44801206 8.17560736 30.99039756 10.72875977 27.92312622 C12.74901449 26.15517205 14.83216814 24.58056029 17 23 C17.53911011 22.44195175 18.07822021 21.8839035 18.63366699 21.3089447 C20 20 20 20 22 20 C22 19.34 22 18.68 22 18 C14.74 18 7.48 18 0 18 C0 12.06 0 6.12 0 0 Z " fill="#F6560F" transform="translate(54,48)"/>
<path d="M0 0 C6.6 0 13.2 0 20 0 C20 13.2 20 26.4 20 40 C13.4 40 6.8 40 0 40 C0 26.8 0 13.6 0 0 Z " fill="#5B0AC8" transform="translate(236,167)"/>
<path d="M0 0 C2.97 0 5.94 0 9 0 C7.3341708 6.16356805 4.12194714 11.48259656 1 17 C-0.65 17 -2.3 17 -4 17 C-3.35729017 11.0870696 -1.80996216 5.65755469 0 0 Z " fill="#5D0EC8" transform="translate(18,111)"/>
<path d="M0 0 C3.3 0 6.6 0 10 0 C9.19126545 2.64703891 8.37821309 5.2926121 7.5625 7.9375 C7.33240234 8.69224609 7.10230469 9.44699219 6.86523438 10.22460938 C5.11328125 15.88671875 5.11328125 15.88671875 4 17 C2.35 17 0.7 17 -1 17 C-0.67 11.39 -0.34 5.78 0 0 Z " fill="#5D0EC8" transform="translate(6,111)"/>
<path d="M0 0 C0.99 0 1.98 0 3 0 C1.68 5.28 0.36 10.56 -1 16 C0.98 15.67 2.96 15.34 5 15 C5 15.66 5 16.32 5 17 C1.625 17.125 1.625 17.125 -2 17 C-2.66 16.34 -3.32 15.68 -4 15 C-3.67238912 9.53981871 -2.02344607 5.01462723 0 0 Z " fill="#E9DFF7" transform="translate(15,112)"/>
</svg>
