<?xml version="1.0" encoding="UTF-8" ?>
<svg version="1.1" width="360" height="360" xmlns="http://www.w3.org/2000/svg" shape-rendering="crispEdges">
<rect x="130" y="18" width="4" height="233" fill="#000000" />
<rect x="188" y="18" width="159" height="82" fill="#000000" />
<rect x="129" y="19" width="1" height="234" fill="#000000" />
<rect x="187" y="19" width="1" height="81" fill="#000000" />
<rect x="128" y="20" width="1" height="234" fill="#000000" />
<rect x="186" y="20" width="1" height="80" fill="#000000" />
<rect x="126" y="21" width="2" height="233" fill="#000000" />
<rect x="184" y="21" width="2" height="79" fill="#000000" />
<rect x="124" y="22" width="2" height="234" fill="#000000" />
<rect x="183" y="22" width="1" height="78" fill="#000000" />
<rect x="123" y="23" width="1" height="234" fill="#000000" />
<rect x="182" y="23" width="1" height="77" fill="#000000" />
<rect x="121" y="24" width="2" height="234" fill="#000000" />
<rect x="181" y="24" width="1" height="76" fill="#000000" />
<rect x="119" y="25" width="2" height="234" fill="#000000" />
<rect x="180" y="25" width="1" height="75" fill="#000000" />
<rect x="118" y="26" width="1" height="234" fill="#000000" />
<rect x="178" y="26" width="2" height="74" fill="#000000" />
<rect x="116" y="27" width="2" height="234" fill="#000000" />
<rect x="177" y="27" width="1" height="73" fill="#000000" />
<rect x="114" y="28" width="2" height="234" fill="#000000" />
<rect x="176" y="28" width="1" height="72" fill="#000000" />
<rect x="113" y="29" width="1" height="234" fill="#000000" />
<rect x="175" y="29" width="1" height="71" fill="#000000" />
<rect x="111" y="30" width="2" height="234" fill="#000000" />
<rect x="174" y="30" width="1" height="70" fill="#000000" />
<rect x="109" y="31" width="2" height="234" fill="#000000" />
<rect x="172" y="31" width="2" height="69" fill="#000000" />
<rect x="108" y="32" width="1" height="234" fill="#000000" />
<rect x="171" y="32" width="1" height="68" fill="#000000" />
<rect x="106" y="33" width="2" height="234" fill="#000000" />
<rect x="170" y="33" width="1" height="67" fill="#000000" />
<rect x="104" y="34" width="2" height="234" fill="#000000" />
<rect x="169" y="34" width="1" height="66" fill="#000000" />
<rect x="103" y="35" width="1" height="235" fill="#000000" />
<rect x="168" y="35" width="1" height="65" fill="#000000" />
<rect x="101" y="36" width="2" height="234" fill="#000000" />
<rect x="166" y="36" width="2" height="64" fill="#000000" />
<rect x="99" y="37" width="2" height="234" fill="#000000" />
<rect x="165" y="37" width="1" height="63" fill="#000000" />
<rect x="98" y="38" width="1" height="235" fill="#000000" />
<rect x="164" y="38" width="1" height="62" fill="#000000" />
<rect x="96" y="39" width="2" height="234" fill="#000000" />
<rect x="163" y="39" width="1" height="61" fill="#000000" />
<rect x="94" y="40" width="2" height="235" fill="#000000" />
<rect x="162" y="40" width="1" height="60" fill="#000000" />
<rect x="93" y="41" width="1" height="235" fill="#000000" />
<rect x="160" y="41" width="2" height="59" fill="#000000" />
<rect x="91" y="42" width="2" height="235" fill="#000000" />
<rect x="159" y="42" width="1" height="58" fill="#000000" />
<rect x="89" y="43" width="2" height="235" fill="#000000" />
<rect x="158" y="43" width="1" height="57" fill="#000000" />
<rect x="88" y="44" width="1" height="235" fill="#000000" />
<rect x="157" y="44" width="1" height="56" fill="#000000" />
<rect x="86" y="45" width="2" height="235" fill="#000000" />
<rect x="156" y="45" width="1" height="55" fill="#000000" />
<rect x="84" y="46" width="2" height="235" fill="#000000" />
<rect x="154" y="46" width="2" height="54" fill="#000000" />
<rect x="83" y="47" width="1" height="235" fill="#000000" />
<rect x="153" y="47" width="1" height="53" fill="#000000" />
<rect x="81" y="48" width="2" height="235" fill="#000000" />
<rect x="152" y="48" width="1" height="52" fill="#000000" />
<rect x="79" y="49" width="2" height="235" fill="#000000" />
<rect x="151" y="49" width="1" height="51" fill="#000000" />
<rect x="78" y="50" width="1" height="235" fill="#000000" />
<rect x="150" y="50" width="1" height="50" fill="#000000" />
<rect x="76" y="51" width="2" height="235" fill="#000000" />
<rect x="148" y="51" width="2" height="49" fill="#000000" />
<rect x="75" y="52" width="1" height="235" fill="#000000" />
<rect x="147" y="52" width="1" height="48" fill="#000000" />
<rect x="73" y="53" width="2" height="235" fill="#000000" />
<rect x="146" y="53" width="1" height="47" fill="#000000" />
<rect x="71" y="54" width="2" height="235" fill="#000000" />
<rect x="145" y="54" width="1" height="46" fill="#000000" />
<rect x="70" y="55" width="1" height="235" fill="#000000" />
<rect x="144" y="55" width="1" height="45" fill="#000000" />
<rect x="68" y="56" width="2" height="235" fill="#000000" />
<rect x="142" y="56" width="2" height="44" fill="#000000" />
<rect x="66" y="57" width="2" height="235" fill="#000000" />
<rect x="141" y="57" width="1" height="43" fill="#000000" />
<rect x="65" y="58" width="1" height="236" fill="#000000" />
<rect x="140" y="58" width="1" height="42" fill="#000000" />
<rect x="63" y="59" width="2" height="235" fill="#000000" />
<rect x="139" y="59" width="1" height="41" fill="#000000" />
<rect x="61" y="60" width="2" height="235" fill="#000000" />
<rect x="138" y="60" width="1" height="40" fill="#000000" />
<rect x="60" y="61" width="1" height="236" fill="#000000" />
<rect x="136" y="61" width="2" height="39" fill="#000000" />
<rect x="58" y="62" width="2" height="235" fill="#000000" />
<rect x="135" y="62" width="1" height="38" fill="#000000" />
<rect x="56" y="63" width="2" height="236" fill="#000000" />
<rect x="134" y="63" width="1" height="187" fill="#000000" />
<rect x="55" y="64" width="1" height="236" fill="#000000" />
<rect x="53" y="65" width="2" height="236" fill="#000000" />
<rect x="51" y="66" width="2" height="236" fill="#000000" />
<rect x="50" y="67" width="1" height="236" fill="#000000" />
<rect x="48" y="68" width="2" height="236" fill="#000000" />
<rect x="46" y="69" width="2" height="236" fill="#000000" />
<rect x="45" y="70" width="1" height="236" fill="#000000" />
<rect x="43" y="71" width="2" height="236" fill="#000000" />
<rect x="41" y="72" width="2" height="236" fill="#000000" />
<rect x="40" y="73" width="1" height="236" fill="#000000" />
<rect x="38" y="74" width="2" height="236" fill="#000000" />
<rect x="36" y="75" width="2" height="236" fill="#000000" />
<rect x="35" y="76" width="1" height="237" fill="#000000" />
<rect x="33" y="77" width="2" height="236" fill="#000000" />
<rect x="31" y="78" width="2" height="236" fill="#000000" />
<rect x="30" y="79" width="1" height="237" fill="#000000" />
<rect x="28" y="80" width="2" height="236" fill="#000000" />
<rect x="26" y="81" width="2" height="237" fill="#000000" />
<rect x="25" y="82" width="1" height="237" fill="#000000" />
<rect x="23" y="83" width="2" height="236" fill="#000000" />
<rect x="21" y="84" width="2" height="237" fill="#000000" />
<rect x="20" y="85" width="1" height="237" fill="#000000" />
<rect x="256" y="100" width="91" height="223" fill="#000000" />
<rect x="135" y="219" width="121" height="31" fill="#000000" />
<rect x="137" y="250" width="119" height="2" fill="#000000" />
<rect x="130" y="251" width="2" height="1" fill="#000000" />
<rect x="130" y="252" width="1" height="1" fill="#000000" />
<rect x="139" y="252" width="117" height="1" fill="#000000" />
<rect x="140" y="253" width="116" height="1" fill="#000000" />
<rect x="126" y="254" width="1" height="1" fill="#000000" />
<rect x="141" y="254" width="115" height="1" fill="#000000" />
<rect x="142" y="255" width="114" height="1" fill="#000000" />
<rect x="143" y="256" width="113" height="1" fill="#000000" />
<rect x="144" y="257" width="112" height="1" fill="#000000" />
<rect x="145" y="258" width="111" height="1" fill="#000000" />
<rect x="146" y="259" width="110" height="2" fill="#000000" />
<rect x="147" y="261" width="109" height="1" fill="#000000" />
<rect x="114" y="262" width="1" height="1" fill="#000000" />
<rect x="148" y="262" width="108" height="1" fill="#000000" />
<rect x="149" y="263" width="107" height="1" fill="#000000" />
<rect x="111" y="264" width="1" height="1" fill="#000000" />
<rect x="150" y="264" width="106" height="1" fill="#000000" />
<rect x="109" y="265" width="1" height="1" fill="#000000" />
<rect x="151" y="265" width="105" height="1" fill="#000000" />
<rect x="152" y="266" width="104" height="1" fill="#000000" />
<rect x="106" y="267" width="1" height="1" fill="#000000" />
<rect x="153" y="267" width="103" height="1" fill="#000000" />
<rect x="104" y="268" width="1" height="1" fill="#000000" />
<rect x="154" y="268" width="102" height="1" fill="#000000" />
<rect x="155" y="269" width="101" height="1" fill="#000000" />
<rect x="101" y="270" width="1" height="1" fill="#000000" />
<rect x="156" y="270" width="100" height="1" fill="#000000" />
<rect x="99" y="271" width="1" height="1" fill="#000000" />
<rect x="157" y="271" width="99" height="1" fill="#000000" />
<rect x="158" y="272" width="98" height="1" fill="#000000" />
<rect x="96" y="273" width="1" height="1" fill="#000000" />
<rect x="159" y="273" width="97" height="2" fill="#000000" />
<rect x="160" y="275" width="96" height="1" fill="#000000" />
<rect x="161" y="276" width="95" height="1" fill="#000000" />
<rect x="162" y="277" width="94" height="1" fill="#000000" />
<rect x="163" y="278" width="93" height="1" fill="#000000" />
<rect x="164" y="279" width="92" height="1" fill="#000000" />
<rect x="165" y="280" width="91" height="1" fill="#000000" />
<rect x="84" y="281" width="1" height="1" fill="#000000" />
<rect x="166" y="281" width="90" height="1" fill="#000000" />
<rect x="167" y="282" width="89" height="1" fill="#000000" />
<rect x="168" y="283" width="88" height="1" fill="#000000" />
<rect x="79" y="284" width="1" height="1" fill="#000000" />
<rect x="169" y="284" width="87" height="1" fill="#000000" />
<rect x="170" y="285" width="86" height="1" fill="#000000" />
<rect x="76" y="286" width="1" height="1" fill="#000000" />
<rect x="171" y="286" width="85" height="1" fill="#000000" />
<rect x="172" y="287" width="84" height="2" fill="#000000" />
<rect x="73" y="288" width="1" height="1" fill="#000000" />
<rect x="71" y="289" width="1" height="1" fill="#000000" />
<rect x="173" y="289" width="83" height="1" fill="#000000" />
<rect x="174" y="290" width="82" height="1" fill="#000000" />
<rect x="68" y="291" width="1" height="1" fill="#000000" />
<rect x="175" y="291" width="81" height="1" fill="#000000" />
<rect x="66" y="292" width="1" height="1" fill="#000000" />
<rect x="176" y="292" width="80" height="1" fill="#000000" />
<rect x="177" y="293" width="79" height="1" fill="#000000" />
<rect x="63" y="294" width="1" height="1" fill="#000000" />
<rect x="178" y="294" width="78" height="1" fill="#000000" />
<rect x="61" y="295" width="1" height="1" fill="#000000" />
<rect x="179" y="295" width="77" height="1" fill="#000000" />
<rect x="180" y="296" width="76" height="1" fill="#000000" />
<rect x="58" y="297" width="1" height="1" fill="#000000" />
<rect x="181" y="297" width="75" height="1" fill="#000000" />
<rect x="182" y="298" width="74" height="1" fill="#000000" />
<rect x="183" y="299" width="73" height="1" fill="#000000" />
<rect x="184" y="300" width="72" height="1" fill="#000000" />
<rect x="185" y="301" width="71" height="2" fill="#000000" />
<rect x="186" y="303" width="70" height="1" fill="#000000" />
<rect x="187" y="304" width="69" height="1" fill="#000000" />
<rect x="46" y="305" width="1" height="1" fill="#000000" />
<rect x="188" y="305" width="68" height="1" fill="#000000" />
<rect x="189" y="306" width="67" height="1" fill="#000000" />
<rect x="190" y="307" width="66" height="1" fill="#000000" />
<rect x="41" y="308" width="1" height="1" fill="#000000" />
<rect x="191" y="308" width="65" height="1" fill="#000000" />
<rect x="192" y="309" width="64" height="1" fill="#000000" />
<rect x="38" y="310" width="1" height="1" fill="#000000" />
<rect x="193" y="310" width="63" height="1" fill="#000000" />
<rect x="36" y="311" width="1" height="1" fill="#000000" />
<rect x="194" y="311" width="62" height="1" fill="#000000" />
<rect x="195" y="312" width="61" height="1" fill="#000000" />
<rect x="33" y="313" width="1" height="1" fill="#000000" />
<rect x="196" y="313" width="60" height="1" fill="#000000" />
<rect x="31" y="314" width="1" height="1" fill="#000000" />
<rect x="197" y="314" width="59" height="1" fill="#000000" />
<rect x="198" y="315" width="58" height="2" fill="#000000" />
<rect x="28" y="316" width="1" height="1" fill="#000000" />
<rect x="199" y="317" width="57" height="1" fill="#000000" />
<rect x="200" y="318" width="56" height="1" fill="#000000" />
<rect x="23" y="319" width="1" height="1" fill="#000000" />
<rect x="201" y="319" width="55" height="1" fill="#000000" />
<rect x="202" y="320" width="54" height="1" fill="#000000" />
<rect x="203" y="321" width="53" height="1" fill="#000000" />
<rect x="204" y="322" width="52" height="1" fill="#000000" />
</svg>